<svg width="195" height="64" viewBox="0 0 195 64" fill="none" xmlns="http://www.w3.org/2000/svg">
<path d="M10.667 0.5H184C189.615 0.5 194.167 5.0521 194.167 10.667V53.333C194.167 58.9479 189.615 63.5 184 63.5H10.667C5.0521 63.5 0.5 58.9479 0.5 53.333V10.667C0.5 5.0521 5.0521 0.5 10.667 0.5Z" fill="#151515" stroke="white"/>
<path d="M31.0181 20.935C30.5631 18.4543 31.7361 15.9015 33.1486 14.181C34.7054 12.2827 37.377 10.827 39.6602 10.667C40.0458 13.2678 38.9845 15.8018 37.5873 17.5943C36.0886 19.5199 33.5117 21.0131 31.0181 20.935ZM44.4101 29.9239C45.1166 27.9529 46.5162 26.1795 48.6874 24.983C46.4933 22.245 43.4127 20.6554 40.5055 20.6554C36.6593 20.6554 35.033 22.4878 32.3615 22.4878C29.6094 22.4878 27.5217 20.6554 24.1901 20.6554C20.9231 20.6554 17.4455 22.6466 15.2401 26.0473C14.4291 27.3043 13.8798 28.8659 13.5802 30.6054C12.7489 35.4849 13.9907 41.8405 17.6949 47.4837C19.4958 50.2221 21.8965 53.3065 25.0326 53.3334C27.8263 53.3606 28.6189 51.5473 32.4009 51.5285C36.1883 51.507 36.9062 53.3522 39.6961 53.3255C42.8331 53.299 45.3659 49.8855 47.167 47.1475C48.4494 45.1827 48.9343 44.1902 49.9315 41.9689C44.8611 40.0567 42.7757 34.4694 44.4101 29.9239Z" fill="white"/>
<path d="M70.823 19.6527H72.073C72.0079 20.2517 71.8365 20.7877 71.5586 21.2607C71.2809 21.7338 70.888 22.1093 70.3803 22.387C69.8724 22.6605 69.2387 22.7973 68.4793 22.7973C67.9237 22.7973 67.418 22.693 66.9623 22.4847C66.5108 22.2763 66.1224 21.9813 65.797 21.5993C65.4714 21.213 65.2197 20.7507 65.0417 20.2126C64.8681 19.6701 64.7812 19.0667 64.7812 18.4027V17.4587C64.7812 16.7946 64.8681 16.1935 65.0417 15.6553C65.2197 15.1127 65.4735 14.6483 65.8034 14.2621C66.1377 13.8758 66.5391 13.5785 67.0079 13.3701C67.4766 13.1618 68.0039 13.0576 68.5899 13.0576C69.3061 13.0576 69.9115 13.1922 70.4063 13.4613C70.9011 13.7303 71.2853 14.1037 71.5586 14.581C71.8365 15.0542 72.0079 15.6031 72.073 16.2282H70.823C70.7622 15.7855 70.6494 15.4057 70.4845 15.0889C70.3195 14.7677 70.0851 14.5203 69.7812 14.3467C69.4775 14.1731 69.0803 14.0863 68.5899 14.0863C68.1689 14.0863 67.7978 14.1666 67.4766 14.3271C67.1598 14.4878 66.8929 14.7157 66.6758 15.0107C66.4631 15.3059 66.3026 15.6597 66.1941 16.0719C66.0855 16.4843 66.0312 16.9422 66.0312 17.4457V18.4027C66.0312 18.8671 66.079 19.3033 66.1746 19.7113C66.2743 20.1193 66.4241 20.4773 66.6238 20.7855C66.8234 21.0937 67.0773 21.3367 67.3855 21.5146C67.6937 21.6883 68.0582 21.7751 68.4793 21.7751C69.0131 21.7751 69.4384 21.6905 69.7552 21.5211C70.072 21.3519 70.3109 21.1089 70.4714 20.7921C70.6363 20.4751 70.7535 20.0954 70.823 19.6527ZM73.2839 19.223V19.0733C73.2839 18.5654 73.3576 18.0945 73.5052 17.6605C73.6528 17.2221 73.8655 16.8423 74.1432 16.5211C74.4211 16.1957 74.7574 15.9439 75.1525 15.7659C75.5474 15.5837 75.9901 15.4925 76.4806 15.4925C76.9753 15.4925 77.4202 15.5837 77.8151 15.7659C78.2145 15.9439 78.553 16.1957 78.8307 16.5211C79.1129 16.8423 79.3278 17.2221 79.4753 17.6605C79.6229 18.0945 79.6967 18.5654 79.6967 19.0733V19.223C79.6967 19.7309 79.6229 20.2017 79.4753 20.6358C79.3278 21.0698 79.1129 21.4495 78.8307 21.7751C78.553 22.0962 78.2166 22.3479 77.8217 22.5303C77.431 22.7082 76.9883 22.7973 76.4935 22.7973C75.9987 22.7973 75.5539 22.7082 75.1588 22.5303C74.7639 22.3479 74.4254 22.0962 74.1432 21.7751C73.8655 21.4495 73.6528 21.0698 73.5052 20.6358C73.3576 20.2017 73.2839 19.7309 73.2839 19.223ZM74.4883 19.0733V19.223C74.4883 19.5746 74.5295 19.9066 74.6121 20.2191C74.6945 20.5273 74.8182 20.8007 74.9831 21.0394C75.1525 21.2781 75.3629 21.4669 75.6146 21.6058C75.8663 21.7403 76.1594 21.8077 76.4935 21.8077C76.8234 21.8077 77.1121 21.7403 77.3594 21.6058C77.6111 21.4669 77.8195 21.2781 77.9845 21.0394C78.1494 20.8007 78.2731 20.5273 78.3555 20.2191C78.4423 19.9066 78.4858 19.5746 78.4858 19.223V19.0733C78.4858 18.7261 78.4423 18.3983 78.3555 18.0902C78.2731 17.7777 78.1472 17.5021 77.9779 17.2634C77.813 17.0203 77.6047 16.8293 77.3528 16.6905C77.1055 16.5515 76.8147 16.4821 76.4806 16.4821C76.1507 16.4821 75.8599 16.5515 75.6082 16.6905C75.3607 16.8293 75.1525 17.0203 74.9831 17.2634C74.8182 17.5021 74.6945 17.7777 74.6121 18.0902C74.5295 18.3983 74.4883 18.7261 74.4883 19.0733ZM82.405 17.0225V22.667H81.1941V15.6227H82.3399L82.405 17.0225ZM82.1576 18.8779L81.5977 18.8585C81.6021 18.3766 81.665 17.9318 81.7865 17.5238C81.9081 17.1114 82.0882 16.7534 82.3268 16.4495C82.5656 16.1457 82.8629 15.9114 83.2189 15.7465C83.5747 15.5771 83.987 15.4925 84.4558 15.4925C84.7857 15.4925 85.0895 15.5402 85.3672 15.6358C85.645 15.7269 85.8859 15.8723 86.0899 16.0719C86.2939 16.2717 86.4523 16.5277 86.5651 16.8402C86.678 17.1527 86.7344 17.5303 86.7344 17.973V22.667H85.5301V18.0315C85.5301 17.6626 85.4671 17.3675 85.3412 17.1462C85.2196 16.9249 85.0461 16.7642 84.8203 16.6643C84.5947 16.5602 84.3299 16.5082 84.0261 16.5082C83.6702 16.5082 83.3729 16.5711 83.1342 16.697C82.8954 16.8229 82.7044 16.9965 82.5612 17.2178C82.418 17.4391 82.3139 17.693 82.2487 17.9795C82.1881 18.2617 82.1576 18.5611 82.1576 18.8779ZM86.7214 18.2139L85.9141 18.4613C85.9185 18.075 85.9814 17.7039 86.1029 17.3479C86.2287 16.9921 86.4088 16.6753 86.6432 16.3975C86.882 16.1197 87.175 15.9005 87.5222 15.7399C87.8694 15.575 88.2666 15.4925 88.7137 15.4925C89.0913 15.4925 89.4254 15.5425 89.7162 15.6422C90.0114 15.7421 90.2587 15.8962 90.4585 16.1045C90.6623 16.3085 90.8165 16.5711 90.9206 16.8922C91.0249 17.2134 91.0769 17.5954 91.0769 18.0381V22.667H89.8659V18.0251C89.8659 17.6301 89.803 17.3241 89.6771 17.1071C89.5556 16.8858 89.3821 16.7317 89.1563 16.6449C88.935 16.5537 88.6702 16.5082 88.3621 16.5082C88.0973 16.5082 87.8629 16.5537 87.6589 16.6449C87.4549 16.7361 87.2835 16.8619 87.1446 17.0225C87.0056 17.1787 86.8994 17.3589 86.8255 17.5629C86.7562 17.7669 86.7214 17.9838 86.7214 18.2139ZM94.2083 15.6227V22.667H92.9974V15.6227H94.2083ZM92.9063 13.7542C92.9063 13.5589 92.9649 13.3939 93.0821 13.2594C93.2037 13.1249 93.3815 13.0576 93.6159 13.0576C93.8459 13.0576 94.0218 13.1249 94.1432 13.2594C94.2691 13.3939 94.3321 13.5589 94.3321 13.7542C94.3321 13.9409 94.2691 14.1014 94.1432 14.2361C94.0218 14.3662 93.8459 14.4313 93.6159 14.4313C93.3815 14.4313 93.2037 14.3662 93.0821 14.2361C92.9649 14.1014 92.9063 13.9409 92.9063 13.7542ZM97.3465 17.1266V22.667H96.1419V15.6227H97.2812L97.3465 17.1266ZM97.0599 18.8779L96.5586 18.8585C96.563 18.3766 96.6346 17.9318 96.7735 17.5238C96.9123 17.1114 97.1077 16.7534 97.3594 16.4495C97.6111 16.1457 97.9106 15.9114 98.2579 15.7465C98.6094 15.5771 98.9979 15.4925 99.4232 15.4925C99.7705 15.4925 100.083 15.5402 100.361 15.6358C100.638 15.7269 100.875 15.8745 101.07 16.0785C101.27 16.2825 101.422 16.5473 101.526 16.8727C101.63 17.1939 101.682 17.5867 101.682 18.0511V22.667H100.471V18.0381C100.471 17.6691 100.417 17.3741 100.309 17.1527C100.2 16.927 100.042 16.7642 99.8334 16.6643C99.6251 16.5602 99.369 16.5082 99.0651 16.5082C98.7656 16.5082 98.4922 16.5711 98.2449 16.697C98.0018 16.8229 97.7913 16.9965 97.6134 17.2178C97.4398 17.4391 97.303 17.693 97.2031 17.9795C97.1077 18.2617 97.0599 18.5611 97.0599 18.8779ZM108.076 15.6227H109.169V22.5173C109.169 23.1379 109.044 23.6674 108.792 24.1058C108.54 24.5442 108.188 24.8762 107.737 25.1019C107.29 25.3319 106.774 25.447 106.188 25.447C105.944 25.447 105.658 25.4079 105.328 25.3298C105.003 25.2559 104.682 25.1279 104.365 24.9457C104.052 24.7677 103.79 24.5269 103.577 24.223L104.208 23.5069C104.504 23.8627 104.812 24.1102 105.133 24.249C105.458 24.3879 105.78 24.4574 106.096 24.4574C106.478 24.4574 106.808 24.3858 107.086 24.2425C107.364 24.0993 107.579 23.8866 107.731 23.6045C107.887 23.3267 107.965 22.9838 107.965 22.5758V17.1722L108.076 15.6227ZM103.225 19.223V19.0863C103.225 18.5481 103.288 18.0598 103.414 17.6214C103.544 17.1787 103.729 16.799 103.968 16.4821C104.211 16.1653 104.504 15.9222 104.846 15.753C105.189 15.5793 105.576 15.4925 106.005 15.4925C106.448 15.4925 106.834 15.5706 107.164 15.7269C107.498 15.8789 107.78 16.1023 108.01 16.3975C108.245 16.6883 108.429 17.0398 108.564 17.4522C108.698 17.8645 108.792 18.331 108.844 18.8519V19.4509C108.796 19.9674 108.703 20.4318 108.564 20.8441C108.429 21.2565 108.245 21.6079 108.01 21.8987C107.78 22.1895 107.498 22.4131 107.164 22.5694C106.83 22.7213 106.439 22.7973 105.992 22.7973C105.571 22.7973 105.189 22.7082 104.846 22.5303C104.508 22.3523 104.217 22.1027 103.974 21.7815C103.731 21.4605 103.544 21.0827 103.414 20.6487C103.288 20.2105 103.225 19.7351 103.225 19.223ZM104.43 19.0863V19.223C104.43 19.5746 104.464 19.9045 104.534 20.2126C104.608 20.5207 104.718 20.7921 104.866 21.0263C105.018 21.2607 105.211 21.4453 105.445 21.5798C105.68 21.7099 105.96 21.7751 106.285 21.7751C106.684 21.7751 107.014 21.6905 107.275 21.5211C107.535 21.3519 107.741 21.1283 107.893 20.8506C108.05 20.5729 108.171 20.2711 108.258 19.9457V18.3766C108.21 18.1379 108.136 17.9079 108.036 17.6865C107.941 17.4609 107.815 17.2611 107.659 17.0875C107.507 16.9097 107.318 16.7686 107.092 16.6643C106.867 16.5602 106.602 16.5082 106.298 16.5082C105.968 16.5082 105.684 16.5775 105.445 16.7165C105.211 16.851 105.018 17.0377 104.866 17.2763C104.718 17.5107 104.608 17.7842 104.534 18.0967C104.464 18.4049 104.43 18.7347 104.43 19.0863ZM118.408 20.7985C118.408 20.6249 118.369 20.4643 118.29 20.3167C118.217 20.1649 118.063 20.0281 117.828 19.9066C117.598 19.7807 117.251 19.6722 116.786 19.581C116.396 19.4986 116.042 19.401 115.725 19.2881C115.413 19.1753 115.146 19.0385 114.925 18.8779C114.708 18.7174 114.54 18.5286 114.423 18.3115C114.306 18.0945 114.247 17.8406 114.247 17.5498C114.247 17.2721 114.308 17.0094 114.43 16.7621C114.556 16.5146 114.731 16.2955 114.957 16.1045C115.187 15.9135 115.463 15.7638 115.784 15.6553C116.105 15.5467 116.463 15.4925 116.858 15.4925C117.422 15.4925 117.904 15.5923 118.303 15.7921C118.703 15.9917 119.009 16.2586 119.221 16.5927C119.434 16.9226 119.54 17.2894 119.54 17.693H118.336C118.336 17.4977 118.277 17.3089 118.16 17.1266C118.047 16.9401 117.88 16.7859 117.659 16.6643C117.442 16.5429 117.175 16.4821 116.858 16.4821C116.524 16.4821 116.253 16.5342 116.044 16.6383C115.84 16.7382 115.691 16.8662 115.595 17.0225C115.504 17.1787 115.458 17.3437 115.458 17.5173C115.458 17.6475 115.48 17.7646 115.524 17.8689C115.571 17.9686 115.654 18.0619 115.771 18.1487C115.888 18.2313 116.053 18.3094 116.266 18.3831C116.478 18.4569 116.75 18.5307 117.08 18.6045C117.657 18.7347 118.132 18.891 118.505 19.0733C118.879 19.2555 119.156 19.479 119.339 19.7438C119.521 20.0086 119.612 20.3298 119.612 20.7074C119.612 21.0155 119.547 21.2977 119.417 21.5537C119.291 21.8098 119.106 22.0311 118.863 22.2178C118.625 22.4001 118.338 22.5433 118.004 22.6475C117.674 22.7473 117.303 22.7973 116.891 22.7973C116.27 22.7973 115.745 22.6865 115.315 22.4651C114.886 22.2438 114.56 21.9574 114.339 21.6058C114.117 21.2542 114.007 20.8831 114.007 20.4925H115.218C115.235 20.8223 115.33 21.085 115.504 21.2803C115.678 21.4713 115.89 21.6079 116.142 21.6905C116.394 21.7686 116.643 21.8077 116.891 21.8077C117.221 21.8077 117.496 21.7642 117.718 21.6774C117.943 21.5906 118.115 21.4713 118.232 21.3194C118.349 21.1674 118.408 20.9938 118.408 20.7985ZM120.875 19.223V19.0733C120.875 18.5654 120.949 18.0945 121.096 17.6605C121.244 17.2221 121.457 16.8423 121.734 16.5211C122.012 16.1957 122.349 15.9439 122.744 15.7659C123.138 15.5837 123.581 15.4925 124.072 15.4925C124.566 15.4925 125.011 15.5837 125.406 15.7659C125.806 15.9439 126.144 16.1957 126.422 16.5211C126.704 16.8423 126.919 17.2221 127.066 17.6605C127.214 18.0945 127.288 18.5654 127.288 19.0733V19.223C127.288 19.7309 127.214 20.2017 127.066 20.6358C126.919 21.0698 126.704 21.4495 126.422 21.7751C126.144 22.0962 125.808 22.3479 125.413 22.5303C125.022 22.7082 124.58 22.7973 124.085 22.7973C123.59 22.7973 123.145 22.7082 122.75 22.5303C122.355 22.3479 122.017 22.0962 121.734 21.7751C121.457 21.4495 121.244 21.0698 121.096 20.6358C120.949 20.2017 120.875 19.7309 120.875 19.223ZM122.08 19.0733V19.223C122.08 19.5746 122.121 19.9066 122.203 20.2191C122.286 20.5273 122.409 20.8007 122.574 21.0394C122.744 21.2781 122.954 21.4669 123.206 21.6058C123.458 21.7403 123.75 21.8077 124.085 21.8077C124.415 21.8077 124.703 21.7403 124.951 21.6058C125.202 21.4669 125.411 21.2781 125.576 21.0394C125.74 20.8007 125.864 20.5273 125.947 20.2191C126.034 19.9066 126.077 19.5746 126.077 19.223V19.0733C126.077 18.7261 126.034 18.3983 125.947 18.0902C125.864 17.7777 125.738 17.5021 125.569 17.2634C125.404 17.0203 125.196 16.8293 124.944 16.6905C124.697 16.5515 124.406 16.4821 124.072 16.4821C123.742 16.4821 123.451 16.5515 123.199 16.6905C122.952 16.8293 122.744 17.0203 122.574 17.2634C122.409 17.5021 122.286 17.7777 122.203 18.0902C122.121 18.3983 122.08 18.7261 122.08 19.0733ZM128.479 19.223V19.0733C128.479 18.5654 128.553 18.0945 128.701 17.6605C128.848 17.2221 129.061 16.8423 129.339 16.5211C129.616 16.1957 129.953 15.9439 130.348 15.7659C130.743 15.5837 131.185 15.4925 131.676 15.4925C132.171 15.4925 132.616 15.5837 133.01 15.7659C133.409 15.9439 133.748 16.1957 134.027 16.5211C134.308 16.8423 134.523 17.2221 134.671 17.6605C134.819 18.0945 134.892 18.5654 134.892 19.0733V19.223C134.892 19.7309 134.819 20.2017 134.671 20.6358C134.523 21.0698 134.308 21.4495 134.027 21.7751C133.748 22.0962 133.412 22.3479 133.017 22.5303C132.626 22.7082 132.184 22.7973 131.689 22.7973C131.194 22.7973 130.749 22.7082 130.354 22.5303C129.959 22.3479 129.621 22.0962 129.339 21.7751C129.061 21.4495 128.848 21.0698 128.701 20.6358C128.553 20.2017 128.479 19.7309 128.479 19.223ZM129.684 19.0733V19.223C129.684 19.5746 129.725 19.9066 129.807 20.2191C129.89 20.5273 130.014 20.8007 130.178 21.0394C130.348 21.2781 130.558 21.4669 130.81 21.6058C131.062 21.7403 131.355 21.8077 131.689 21.8077C132.019 21.8077 132.307 21.7403 132.555 21.6058C132.806 21.4669 133.015 21.2781 133.18 21.0394C133.344 20.8007 133.468 20.5273 133.551 20.2191C133.637 19.9066 133.681 19.5746 133.681 19.223V19.0733C133.681 18.7261 133.637 18.3983 133.551 18.0902C133.468 17.7777 133.343 17.5021 133.173 17.2634C133.008 17.0203 132.8 16.8293 132.548 16.6905C132.301 16.5515 132.01 16.4821 131.676 16.4821C131.346 16.4821 131.055 16.5515 130.803 16.6905C130.556 16.8293 130.348 17.0203 130.178 17.2634C130.014 17.5021 129.89 17.7777 129.807 18.0902C129.725 18.3983 129.684 18.7261 129.684 19.0733ZM137.607 17.1266V22.667H136.403V15.6227H137.541L137.607 17.1266ZM137.32 18.8779L136.819 18.8585C136.824 18.3766 136.895 17.9318 137.033 17.5238C137.173 17.1114 137.368 16.7534 137.62 16.4495C137.872 16.1457 138.171 15.9114 138.519 15.7465C138.869 15.5771 139.259 15.4925 139.684 15.4925C140.031 15.4925 140.343 15.5402 140.621 15.6358C140.899 15.7269 141.136 15.8745 141.331 16.0785C141.531 16.2825 141.683 16.5473 141.787 16.8727C141.891 17.1939 141.943 17.5867 141.943 18.0511V22.667H140.732V18.0381C140.732 17.6691 140.677 17.3741 140.569 17.1527C140.46 16.927 140.303 16.7642 140.093 16.6643C139.885 16.5602 139.629 16.5082 139.325 16.5082C139.027 16.5082 138.752 16.5711 138.505 16.697C138.263 16.8229 138.052 16.9965 137.873 17.2178C137.7 17.4391 137.564 17.693 137.464 17.9795C137.368 18.2617 137.32 18.5611 137.32 18.8779ZM146.76 19.223V19.0733C146.76 18.5654 146.835 18.0945 146.981 17.6605C147.129 17.2221 147.343 16.8423 147.62 16.5211C147.897 16.1957 148.233 15.9439 148.629 15.7659C149.024 15.5837 149.467 15.4925 149.957 15.4925C150.452 15.4925 150.897 15.5837 151.292 15.7659C151.691 15.9439 152.029 16.1957 152.307 16.5211C152.589 16.8423 152.804 17.2221 152.952 17.6605C153.1 18.0945 153.173 18.5654 153.173 19.0733V19.223C153.173 19.7309 153.1 20.2017 152.952 20.6358C152.804 21.0698 152.589 21.4495 152.307 21.7751C152.029 22.0962 151.693 22.3479 151.299 22.5303C150.908 22.7082 150.465 22.7973 149.971 22.7973C149.475 22.7973 149.031 22.7082 148.636 22.5303C148.24 22.3479 147.901 22.0962 147.62 21.7751C147.343 21.4495 147.129 21.0698 146.981 20.6358C146.835 20.2017 146.76 19.7309 146.76 19.223ZM147.965 19.0733V19.223C147.965 19.5746 148.007 19.9066 148.088 20.2191C148.171 20.5273 148.295 20.8007 148.46 21.0394C148.629 21.2781 148.84 21.4669 149.091 21.6058C149.343 21.7403 149.636 21.8077 149.971 21.8077C150.3 21.8077 150.588 21.7403 150.836 21.6058C151.088 21.4669 151.296 21.2781 151.461 21.0394C151.625 20.8007 151.749 20.5273 151.832 20.2191C151.919 19.9066 151.963 19.5746 151.963 19.223V19.0733C151.963 18.7261 151.919 18.3983 151.832 18.0902C151.749 17.7777 151.624 17.5021 151.455 17.2634C151.289 17.0203 151.081 16.8293 150.829 16.6905C150.583 16.5515 150.291 16.4821 149.957 16.4821C149.627 16.4821 149.336 16.5515 149.084 16.6905C148.837 16.8293 148.629 17.0203 148.46 17.2634C148.295 17.5021 148.171 17.7777 148.088 18.0902C148.007 18.3983 147.965 18.7261 147.965 19.0733ZM155.888 17.1266V22.667H154.684V15.6227H155.823L155.888 17.1266ZM155.601 18.8779L155.1 18.8585C155.104 18.3766 155.176 17.9318 155.315 17.5238C155.453 17.1114 155.649 16.7534 155.901 16.4495C156.153 16.1457 156.452 15.9114 156.8 15.7465C157.151 15.5771 157.54 15.4925 157.965 15.4925C158.312 15.4925 158.624 15.5402 158.903 15.6358C159.18 15.7269 159.416 15.8745 159.612 16.0785C159.812 16.2825 159.964 16.5473 160.068 16.8727C160.172 17.1939 160.224 17.5867 160.224 18.0511V22.667H159.013V18.0381C159.013 17.6691 158.959 17.3741 158.851 17.1527C158.741 16.927 158.584 16.7642 158.375 16.6643C158.167 16.5602 157.911 16.5082 157.607 16.5082C157.307 16.5082 157.033 16.5711 156.787 16.697C156.544 16.8229 156.333 16.9965 156.155 17.2178C155.981 17.4391 155.844 17.693 155.745 17.9795C155.649 18.2617 155.601 18.5611 155.601 18.8779Z" fill="white"/>
<path d="M71.5832 37.3537L67.8853 49.3329H63.9583L69.5311 34.1663H72.0207L71.5832 37.3537ZM74.6457 49.3329L70.9373 37.3537L70.4583 34.1663H72.9791L78.5832 49.3329H74.6457ZM74.4999 43.6767V46.4996H66.7187V43.6767H74.4999ZM82.5728 40.2288V53.6663H79.0624V38.0621H82.3332L82.5728 40.2288ZM89.4895 43.5621V43.7808C89.4895 44.6003 89.3957 45.3607 89.2081 46.0621C89.0206 46.7635 88.7429 47.3745 88.3748 47.8955C88.0068 48.4163 87.5485 48.8225 86.9999 49.1141C86.4583 49.3989 85.8297 49.5412 85.1144 49.5412C84.4408 49.5412 83.8609 49.392 83.3748 49.0933C82.8888 48.7948 82.4825 48.3816 82.1561 47.8537C81.8297 47.326 81.5659 46.7219 81.3644 46.0412C81.1631 45.3607 81.0033 44.642 80.8853 43.8851V43.6037C81.0033 42.7913 81.1631 42.0377 81.3644 41.3433C81.5659 40.642 81.8297 40.0308 82.1561 39.51C82.4825 38.9892 82.8853 38.5829 83.3644 38.2913C83.8505 37.9996 84.4304 37.8537 85.104 37.8537C85.8193 37.8537 86.4477 37.9892 86.9895 38.26C87.538 38.5308 87.9964 38.9197 88.3644 39.4267C88.7395 39.9267 89.0206 40.5273 89.2081 41.2288C89.3957 41.9301 89.4895 42.7079 89.4895 43.5621ZM85.979 43.7808V43.5621C85.979 43.1247 85.9477 42.7253 85.8853 42.3641C85.8228 41.9961 85.7221 41.6767 85.5832 41.4059C85.4512 41.1351 85.2741 40.9267 85.052 40.7808C84.8297 40.6351 84.5555 40.5621 84.2291 40.5621C83.854 40.5621 83.538 40.6211 83.2811 40.7392C83.0311 40.8503 82.8297 41.0239 82.6769 41.26C82.5311 41.4892 82.4269 41.7773 82.3644 42.1247C82.3089 42.4649 82.2845 42.8641 82.2916 43.3225V44.1767C82.2776 44.7044 82.3297 45.1697 82.4477 45.5725C82.5659 45.9684 82.7707 46.2773 83.0624 46.4996C83.354 46.7219 83.7499 46.8329 84.2499 46.8329C84.5832 46.8329 84.8609 46.7565 85.0832 46.6037C85.3055 46.444 85.4825 46.2253 85.6144 45.9475C85.7464 45.6628 85.8401 45.3364 85.8957 44.9684C85.9512 44.6003 85.979 44.2044 85.979 43.7808ZM94.5936 40.2288V53.6663H91.0832V38.0621H94.354L94.5936 40.2288ZM101.51 43.5621V43.7808C101.51 44.6003 101.417 45.3607 101.229 46.0621C101.041 46.7635 100.764 47.3745 100.396 47.8955C100.028 48.4163 99.5693 48.8225 99.0207 49.1141C98.4791 49.3989 97.8505 49.5412 97.1353 49.5412C96.4617 49.5412 95.8819 49.392 95.3957 49.0933C94.9096 48.7948 94.5033 48.3816 94.1769 47.8537C93.8505 47.326 93.5867 46.7219 93.3853 46.0412C93.1839 45.3607 93.0241 44.642 92.9061 43.8851V43.6037C93.0241 42.7913 93.1839 42.0377 93.3853 41.3433C93.5867 40.642 93.8505 40.0308 94.1769 39.51C94.5033 38.9892 94.9061 38.5829 95.3853 38.2913C95.8713 37.9996 96.4512 37.8537 97.1249 37.8537C97.8401 37.8537 98.4687 37.9892 99.0103 38.26C99.5589 38.5308 100.017 38.9197 100.385 39.4267C100.76 39.9267 101.041 40.5273 101.229 41.2288C101.417 41.9301 101.51 42.7079 101.51 43.5621ZM97.9999 43.7808V43.5621C97.9999 43.1247 97.9687 42.7253 97.9061 42.3641C97.8436 41.9961 97.7429 41.6767 97.604 41.4059C97.4721 41.1351 97.2951 40.9267 97.0728 40.7808C96.8505 40.6351 96.5763 40.5621 96.2499 40.5621C95.8748 40.5621 95.5589 40.6211 95.302 40.7392C95.052 40.8503 94.8505 41.0239 94.6977 41.26C94.552 41.4892 94.4477 41.7773 94.3853 42.1247C94.3297 42.4649 94.3055 42.8641 94.3124 43.3225V44.1767C94.2985 44.7044 94.3505 45.1697 94.4687 45.5725C94.5867 45.9684 94.7916 46.2773 95.0832 46.4996C95.3748 46.7219 95.7707 46.8329 96.2707 46.8329C96.604 46.8329 96.8819 46.7565 97.104 46.6037C97.3263 46.444 97.5033 46.2253 97.6353 45.9475C97.7672 45.6628 97.8609 45.3364 97.9165 44.9684C97.9721 44.6003 97.9999 44.2044 97.9999 43.7808ZM116.364 45.3017C116.364 45.0656 116.33 44.8537 116.26 44.6663C116.191 44.4719 116.062 44.2913 115.875 44.1247C115.687 43.958 115.417 43.7913 115.062 43.6247C114.715 43.4509 114.257 43.2704 113.687 43.0829C113.021 42.8607 112.378 42.6107 111.76 42.3329C111.142 42.0483 110.59 41.7184 110.104 41.3433C109.618 40.9615 109.233 40.5169 108.948 40.01C108.663 39.4961 108.521 38.8989 108.521 38.2184C108.521 37.5656 108.667 36.9788 108.958 36.458C109.25 35.9301 109.656 35.4823 110.177 35.1141C110.705 34.7392 111.323 34.4544 112.031 34.26C112.739 34.0587 113.514 33.958 114.354 33.958C115.465 33.958 116.444 34.1524 117.292 34.5412C118.146 34.9232 118.812 35.4684 119.292 36.1767C119.778 36.8781 120.021 37.7079 120.021 38.6663H116.385C116.385 38.2843 116.305 37.9475 116.146 37.6559C115.993 37.3641 115.76 37.1351 115.448 36.9684C115.135 36.8017 114.743 36.7184 114.271 36.7184C113.812 36.7184 113.427 36.7877 113.114 36.9267C112.802 37.0656 112.566 37.2531 112.406 37.4892C112.246 37.7184 112.167 37.9719 112.167 38.2496C112.167 38.4788 112.229 38.6871 112.354 38.8745C112.486 39.0552 112.67 39.2253 112.906 39.3851C113.149 39.5448 113.441 39.6975 113.781 39.8433C114.128 39.9892 114.517 40.1316 114.948 40.2704C115.753 40.5273 116.469 40.8156 117.094 41.1351C117.726 41.4475 118.257 41.8052 118.687 42.2079C119.125 42.6037 119.455 43.0552 119.677 43.5621C119.906 44.0691 120.021 44.642 120.021 45.2808C120.021 45.9615 119.889 46.5656 119.625 47.0933C119.361 47.6211 118.983 48.0691 118.489 48.4371C117.996 48.7983 117.406 49.0725 116.719 49.26C116.031 49.4475 115.264 49.5412 114.417 49.5412C113.639 49.5412 112.871 49.444 112.114 49.2496C111.364 49.0483 110.684 48.7427 110.073 48.3329C109.462 47.9163 108.972 47.3851 108.604 46.7392C108.243 46.0864 108.062 45.3121 108.062 44.4163H111.729C111.729 44.8607 111.788 45.2357 111.906 45.5412C112.024 45.8468 112.198 46.0933 112.427 46.2808C112.656 46.4615 112.937 46.5933 113.271 46.6767C113.604 46.7531 113.986 46.7913 114.417 46.7913C114.882 46.7913 115.257 46.7253 115.541 46.5933C115.826 46.4544 116.035 46.2739 116.167 46.0517C116.299 45.8225 116.364 45.5725 116.364 45.3017ZM127.677 38.0621V40.4996H120.885V38.0621H127.677ZM122.312 35.26H125.823V45.6559C125.823 45.9544 125.857 46.1871 125.927 46.3537C125.996 46.5135 126.114 46.6281 126.281 46.6975C126.455 46.76 126.684 46.7913 126.969 46.7913C127.17 46.7913 127.337 46.7877 127.469 46.7808C127.601 46.7669 127.726 46.7496 127.844 46.7288V49.2392C127.545 49.3364 127.233 49.4093 126.906 49.458C126.58 49.5135 126.233 49.5412 125.864 49.5412C125.114 49.5412 124.472 49.4232 123.937 49.1871C123.41 48.9509 123.007 48.5795 122.729 48.0725C122.451 47.5656 122.312 46.9059 122.312 46.0933V35.26ZM128.323 43.8121V43.5933C128.323 42.7669 128.441 42.0065 128.677 41.3121C128.913 40.6107 129.26 40.0031 129.719 39.4892C130.177 38.9753 130.743 38.576 131.417 38.2913C132.09 37.9996 132.868 37.8537 133.749 37.8537C134.639 37.8537 135.42 37.9996 136.093 38.2913C136.775 38.576 137.344 38.9753 137.803 39.4892C138.26 40.0031 138.608 40.6107 138.844 41.3121C139.08 42.0065 139.197 42.7669 139.197 43.5933V43.8121C139.197 44.6316 139.08 45.392 138.844 46.0933C138.608 46.7877 138.26 47.3955 137.803 47.9163C137.344 48.4301 136.777 48.8295 136.104 49.1141C135.431 49.3989 134.653 49.5412 133.771 49.5412C132.889 49.5412 132.107 49.3989 131.427 49.1141C130.746 48.8295 130.177 48.4301 129.719 47.9163C129.26 47.3955 128.913 46.7877 128.677 46.0933C128.441 45.392 128.323 44.6316 128.323 43.8121ZM131.833 43.5933V43.8121C131.833 44.2357 131.864 44.6316 131.927 44.9996C131.989 45.3676 132.094 45.6905 132.239 45.9684C132.385 46.2392 132.583 46.4509 132.833 46.6037C133.083 46.7565 133.396 46.8329 133.771 46.8329C134.139 46.8329 134.444 46.7565 134.688 46.6037C134.937 46.4509 135.136 46.2392 135.281 45.9684C135.427 45.6905 135.531 45.3676 135.593 44.9996C135.656 44.6316 135.688 44.2357 135.688 43.8121V43.5933C135.688 43.1836 135.656 42.7983 135.593 42.4371C135.531 42.0691 135.427 41.7461 135.281 41.4684C135.136 41.1836 134.937 40.9615 134.688 40.8017C134.437 40.642 134.125 40.5621 133.749 40.5621C133.381 40.5621 133.073 40.642 132.823 40.8017C132.58 40.9615 132.385 41.1836 132.239 41.4684C132.094 41.7461 131.989 42.0691 131.927 42.4371C131.864 42.7983 131.833 43.1836 131.833 43.5933ZM144.303 40.8537V49.3329H140.792V38.0621H144.073L144.303 40.8537ZM147.636 37.9788L147.573 41.2392C147.435 41.2253 147.247 41.2079 147.011 41.1871C146.775 41.1663 146.576 41.1559 146.416 41.1559C146.007 41.1559 145.653 41.2044 145.355 41.3017C145.063 41.392 144.82 41.5308 144.625 41.7184C144.437 41.8989 144.299 42.1281 144.208 42.4059C144.125 42.6836 144.087 43.0065 144.093 43.3745L143.459 42.958C143.459 42.2009 143.531 41.5135 143.677 40.8955C143.829 40.2704 144.045 39.7323 144.323 39.2808C144.601 38.8225 144.937 38.4719 145.333 38.2288C145.729 37.9788 146.173 37.8537 146.667 37.8537C146.84 37.8537 147.011 37.8641 147.177 37.8851C147.351 37.9059 147.504 37.9371 147.636 37.9788ZM154.093 49.5412C153.177 49.5412 152.357 49.3989 151.636 49.1141C150.913 48.8225 150.303 48.4232 149.803 47.9163C149.309 47.4093 148.931 46.826 148.667 46.1663C148.409 45.5065 148.281 44.8087 148.281 44.0725V43.6767C148.281 42.8503 148.396 42.0864 148.625 41.3851C148.855 40.6767 149.195 40.0587 149.645 39.5308C150.097 39.0031 150.663 38.5933 151.344 38.3017C152.024 38.0031 152.816 37.8537 153.719 37.8537C154.517 37.8537 155.232 37.9823 155.864 38.2392C156.496 38.4961 157.031 38.8641 157.469 39.3433C157.913 39.8225 158.251 40.4024 158.479 41.0829C158.715 41.7635 158.833 42.5273 158.833 43.3745V44.8017H149.625V42.6037H155.407V42.3329C155.413 41.958 155.347 41.6385 155.208 41.3745C155.076 41.1107 154.881 40.9093 154.625 40.7704C154.368 40.6316 154.056 40.5621 153.688 40.5621C153.305 40.5621 152.989 40.6455 152.74 40.8121C152.496 40.9788 152.305 41.2079 152.167 41.4996C152.035 41.7843 151.941 42.1141 151.885 42.4892C151.829 42.8641 151.803 43.26 151.803 43.6767V44.0725C151.803 44.4892 151.857 44.8676 151.969 45.2079C152.087 45.5483 152.253 45.8399 152.469 46.0829C152.691 46.3191 152.955 46.5031 153.26 46.6351C153.573 46.7669 153.927 46.8329 154.323 46.8329C154.803 46.8329 155.275 46.7427 155.74 46.5621C156.205 46.3816 156.604 46.0829 156.937 45.6663L158.531 47.5621C158.303 47.8885 157.976 48.2044 157.552 48.51C157.136 48.8156 156.636 49.0656 156.052 49.26C155.469 49.4475 154.816 49.5412 154.093 49.5412Z" fill="white"/>
</svg>
