<svg width="20" height="20" viewBox="0 0 20 20" fill="none" xmlns="http://www.w3.org/2000/svg">
<mask id="mask0_303_1850" style="mask-type:alpha" maskUnits="userSpaceOnUse" x="0" y="0" width="20" height="20">
<rect x="0.518555" y="0.518555" width="18.963" height="18.963" fill="#D9D9D9"/>
</mask>
<g mask="url(#mask0_303_1850)">
<path d="M14.7407 10.7903V9.21006H17.9012V10.7903H14.7407ZM15.6889 16.3212L13.1605 14.4249L14.1086 13.1607L16.637 15.057L15.6889 16.3212ZM14.1086 6.83969L13.1605 5.5755L15.6889 3.6792L16.637 4.9434L14.1086 6.83969ZM4.46913 15.5311V12.3706H3.679C3.24443 12.3706 2.87242 12.2158 2.56295 11.9064C2.25349 11.5969 2.09875 11.2249 2.09875 10.7903V9.21006C2.09875 8.7755 2.25349 8.40348 2.56295 8.09401C2.87242 7.78455 3.24443 7.62982 3.679 7.62982H6.8395L10.7901 5.25945V14.7409L6.8395 12.3706H6.04937V15.5311H4.46913ZM11.5802 12.6471V7.35327C11.9358 7.66932 12.2222 8.05451 12.4395 8.50883C12.6568 8.96315 12.7654 9.46027 12.7654 10.0002C12.7654 10.5401 12.6568 11.0372 12.4395 11.4915C12.2222 11.9459 11.9358 12.3311 11.5802 12.6471Z" fill="white"/>
</g>
</svg>
