<svg width="20" height="20" viewBox="0 0 20 20" fill="none" xmlns="http://www.w3.org/2000/svg">
<mask id="mask0_303_1891" style="mask-type:alpha" maskUnits="userSpaceOnUse" x="0" y="0" width="20" height="20">
<rect x="0.518555" y="0.518555" width="18.963" height="18.963" fill="#D9D9D9"/>
</mask>
<g mask="url(#mask0_303_1891)">
<path d="M10.0001 17.9011C8.60422 17.9011 7.46512 17.6805 6.58282 17.2394C5.70051 16.7982 5.25936 16.2287 5.25936 15.5307C5.25936 15.2147 5.35484 14.9217 5.54578 14.6517C5.73673 14.3818 6.00339 14.148 6.34578 13.9505L7.59023 15.1159C7.47171 15.1686 7.34331 15.2279 7.20504 15.2937C7.06677 15.3595 6.95813 15.4386 6.87911 15.5307C7.05031 15.7414 7.44537 15.9258 8.0643 16.0838C8.68323 16.2418 9.3285 16.3209 10.0001 16.3209C10.6717 16.3209 11.3203 16.2418 11.9458 16.0838C12.5713 15.9258 12.9697 15.7414 13.1408 15.5307C13.0487 15.4254 12.9301 15.3398 12.7853 15.2739C12.6404 15.2081 12.5022 15.1488 12.3705 15.0962L13.5952 13.911C13.9639 14.1217 14.247 14.362 14.4445 14.632C14.6421 14.9019 14.7408 15.2015 14.7408 15.5307C14.7408 16.2287 14.2997 16.7982 13.4174 17.2394C12.5351 17.6805 11.396 17.9011 10.0001 17.9011ZM10.0001 15.5307C8.14331 14.1612 6.7573 12.8311 5.84208 11.5406C4.92685 10.2501 4.46924 8.98588 4.46924 7.74802C4.46924 6.81304 4.63714 5.99328 4.97294 5.28876C5.30874 4.58423 5.74002 3.99493 6.26677 3.52086C6.79352 3.04678 7.38611 2.69123 8.04455 2.45419C8.70298 2.21715 9.35483 2.09863 10.0001 2.09863C10.6454 2.09863 11.2972 2.21715 11.9557 2.45419C12.6141 2.69123 13.2067 3.04678 13.7334 3.52086C14.2602 3.99493 14.6915 4.58423 15.0273 5.28876C15.3631 5.99328 15.531 6.81304 15.531 7.74802C15.531 8.98588 15.0734 10.2501 14.1581 11.5406C13.2429 12.8311 11.8569 14.1612 10.0001 15.5307ZM10.0001 9.20974C10.4347 9.20974 10.8067 9.05501 11.1162 8.74555C11.4256 8.43608 11.5803 8.06406 11.5803 7.6295C11.5803 7.19493 11.4256 6.82291 11.1162 6.51345C10.8067 6.20398 10.4347 6.04925 10.0001 6.04925C9.56553 6.04925 9.19352 6.20398 8.88405 6.51345C8.57459 6.82291 8.41986 7.19493 8.41986 7.6295C8.41986 8.06406 8.57459 8.43608 8.88405 8.74555C9.19352 9.05501 9.56553 9.20974 10.0001 9.20974Z" fill="white"/>
</g>
</svg>
