<svg width="19" height="20" viewBox="0 0 19 20" fill="none" xmlns="http://www.w3.org/2000/svg">
<mask id="mask0_303_1899" style="mask-type:alpha" maskUnits="userSpaceOnUse" x="0" y="0" width="19" height="20">
<rect x="0.0185547" y="0.518555" width="18.963" height="18.963" fill="#D9D9D9"/>
</mask>
<g mask="url(#mask0_303_1899)">
<path d="M0.808594 16.3212V13.1607C0.808594 12.7129 0.963326 12.3376 1.27279 12.0348C1.58226 11.7319 1.95427 11.5804 2.38884 11.5804H4.9765C5.23987 11.5804 5.49008 11.6463 5.72711 11.778C5.96415 11.9097 6.1551 12.0874 6.29995 12.3113C6.68185 12.8249 7.15263 13.2265 7.7123 13.5162C8.27197 13.8059 8.86785 13.9508 9.49995 13.9508C10.1452 13.9508 10.7477 13.8059 11.3074 13.5162C11.867 13.2265 12.3312 12.8249 12.7 12.3113C12.8711 12.0874 13.072 11.9097 13.3024 11.778C13.5329 11.6463 13.7732 11.5804 14.0234 11.5804H16.6111C17.0588 11.5804 17.4341 11.7319 17.737 12.0348C18.0399 12.3376 18.1913 12.7129 18.1913 13.1607V16.3212H12.6604V14.5236C12.1995 14.8529 11.7024 15.1031 11.1691 15.2743C10.6358 15.4455 10.0794 15.5311 9.49995 15.5311C8.9337 15.5311 8.38061 15.4422 7.84069 15.2644C7.30078 15.0866 6.80036 14.8331 6.33946 14.5039V16.3212H0.808594ZM9.49995 13.1607C8.99954 13.1607 8.52547 13.0455 8.07773 12.815C7.62999 12.5845 7.25468 12.2652 6.9518 11.857C6.72794 11.5278 6.4481 11.2677 6.1123 11.0767C5.7765 10.8858 5.41106 10.7903 5.016 10.7903C5.30571 10.3031 5.91806 9.91788 6.85304 9.63475C7.78802 9.35163 8.67032 9.21006 9.49995 9.21006C10.3296 9.21006 11.2119 9.35163 12.1469 9.63475C13.0818 9.91788 13.6942 10.3031 13.9839 10.7903C13.602 10.7903 13.2399 10.8858 12.8975 11.0767C12.5551 11.2677 12.272 11.5278 12.0481 11.857C11.7584 12.2784 11.3897 12.601 10.9419 12.8249C10.4942 13.0487 10.0135 13.1607 9.49995 13.1607ZM3.17896 10.7903C2.52053 10.7903 1.96086 10.5599 1.49995 10.099C1.03905 9.63805 0.808594 9.07838 0.808594 8.41994C0.808594 7.74834 1.03905 7.18537 1.49995 6.73105C1.96086 6.27673 2.52053 6.04957 3.17896 6.04957C3.85057 6.04957 4.41353 6.27673 4.86785 6.73105C5.32217 7.18537 5.54933 7.74834 5.54933 8.41994C5.54933 9.07838 5.32217 9.63805 4.86785 10.099C4.41353 10.5599 3.85057 10.7903 3.17896 10.7903ZM15.8209 10.7903C15.1625 10.7903 14.6028 10.5599 14.1419 10.099C13.681 9.63805 13.4506 9.07838 13.4506 8.41994C13.4506 7.74834 13.681 7.18537 14.1419 6.73105C14.6028 6.27673 15.1625 6.04957 15.8209 6.04957C16.4925 6.04957 17.0555 6.27673 17.5098 6.73105C17.9642 7.18537 18.1913 7.74834 18.1913 8.41994C18.1913 9.07838 17.9642 9.63805 17.5098 10.099C17.0555 10.5599 16.4925 10.7903 15.8209 10.7903ZM9.49995 8.41994C8.84152 8.41994 8.28185 8.18949 7.82094 7.72858C7.36003 7.26768 7.12958 6.70801 7.12958 6.04957C7.12958 5.37796 7.36003 4.815 7.82094 4.36068C8.28185 3.90636 8.84152 3.6792 9.49995 3.6792C10.1716 3.6792 10.7345 3.90636 11.1888 4.36068C11.6432 4.815 11.8703 5.37796 11.8703 6.04957C11.8703 6.70801 11.6432 7.26768 11.1888 7.72858C10.7345 8.18949 10.1716 8.41994 9.49995 8.41994Z" fill="white"/>
</g>
</svg>
