<svg width="195" height="64" viewBox="0 0 195 64" fill="none" xmlns="http://www.w3.org/2000/svg">
<path d="M10.667 0.5H184C189.615 0.5 194.167 5.0521 194.167 10.667V53.333C194.167 58.9479 189.615 63.5 184 63.5H10.667C5.0521 63.5 0.5 58.9479 0.5 53.333V10.667C0.5 5.0521 5.0521 0.5 10.667 0.5Z" fill="#151515" stroke="white"/>
<path d="M42.5312 25.3022C37.5746 22.5299 29.6193 18.0785 17.28 11.1693C16.448 10.6199 15.4909 10.5479 14.6638 10.8278L35.8347 31.9987L42.5312 25.3022Z" fill="#32BBFF"/>
<path d="M14.6635 10.8271C14.5086 10.8796 14.3578 10.943 14.2135 11.0195C13.3002 11.5135 12.6292 12.4641 12.6292 13.6663V50.3297C12.6292 51.5319 13.3002 52.4826 14.2135 52.9765C14.3575 53.0529 14.5082 53.1165 14.6631 53.1693L35.8345 31.9981L14.6635 10.8271Z" fill="#32BBFF"/>
<path d="M35.8344 31.998L14.6631 53.1692C15.4904 53.4512 16.4475 53.3848 17.2798 52.8274C29.2462 46.1266 37.1119 41.7276 42.1258 38.9319C42.2654 38.8535 42.402 38.7768 42.5372 38.7008L35.8344 31.998Z" fill="#32BBFF"/>
<path d="M12.6292 31.998V50.3298C12.6292 51.5319 13.3002 52.4826 14.2135 52.9764C14.3575 53.0528 14.5082 53.1164 14.6631 53.1692L35.8345 31.998H12.6292Z" fill="#2C9FD9"/>
<path d="M17.2798 11.1693C16.2918 10.517 15.1268 10.5356 14.2136 11.0202L35.5132 32.3199L42.5308 25.3023C37.5744 22.5301 29.6191 18.0785 17.2798 11.1693Z" fill="#29CC5E"/>
<path d="M35.5134 31.6768L14.2136 52.9764C15.127 53.461 16.2918 53.489 17.2798 52.8273C29.2463 46.1265 37.1119 41.7277 42.1258 38.9318C42.2654 38.8534 42.4022 38.7768 42.5372 38.7008L35.5134 31.6768Z" fill="#D93F21"/>
<path d="M51.3712 31.9982C51.3712 30.9824 50.8585 29.9572 49.8427 29.3886C49.8427 29.3886 47.9427 28.3286 42.1191 25.0713L35.1921 31.9982L42.1259 38.932C47.8856 35.698 49.8425 34.6076 49.8425 34.6076C50.8585 34.0392 51.3712 33.014 51.3712 31.9982Z" fill="#FFD500"/>
<path d="M49.8427 34.6075C50.8585 34.039 51.3712 33.0139 51.3712 31.998H35.1921L42.1259 38.9318C47.8856 35.6979 49.8427 34.6075 49.8427 34.6075Z" fill="#FFAA00"/>
<path d="M70.823 19.6527H72.073C72.0079 20.2517 71.8365 20.7877 71.5586 21.2607C71.2809 21.7338 70.888 22.1093 70.3803 22.387C69.8724 22.6605 69.2387 22.7973 68.4793 22.7973C67.9237 22.7973 67.418 22.693 66.9623 22.4847C66.5108 22.2763 66.1224 21.9813 65.797 21.5993C65.4714 21.213 65.2197 20.7507 65.0417 20.2126C64.8681 19.6701 64.7812 19.0667 64.7812 18.4027V17.4587C64.7812 16.7946 64.8681 16.1935 65.0417 15.6553C65.2197 15.1127 65.4735 14.6483 65.8034 14.2621C66.1377 13.8758 66.5391 13.5785 67.0079 13.3701C67.4766 13.1618 68.0039 13.0576 68.5899 13.0576C69.3061 13.0576 69.9115 13.1922 70.4063 13.4613C70.9011 13.7303 71.2853 14.1037 71.5586 14.581C71.8365 15.0542 72.0079 15.6031 72.073 16.2282H70.823C70.7622 15.7855 70.6494 15.4057 70.4845 15.0889C70.3195 14.7677 70.0851 14.5203 69.7812 14.3467C69.4775 14.1731 69.0803 14.0863 68.5899 14.0863C68.1689 14.0863 67.7978 14.1666 67.4766 14.3271C67.1598 14.4878 66.8929 14.7157 66.6758 15.0107C66.4631 15.3059 66.3026 15.6597 66.1941 16.0719C66.0855 16.4843 66.0312 16.9422 66.0312 17.4457V18.4027C66.0312 18.8671 66.079 19.3033 66.1746 19.7113C66.2743 20.1193 66.4241 20.4773 66.6238 20.7855C66.8234 21.0937 67.0773 21.3367 67.3855 21.5146C67.6937 21.6883 68.0582 21.7751 68.4793 21.7751C69.0131 21.7751 69.4384 21.6905 69.7552 21.5211C70.072 21.3519 70.3109 21.1089 70.4714 20.7921C70.6363 20.4751 70.7535 20.0954 70.823 19.6527ZM73.2839 19.223V19.0733C73.2839 18.5654 73.3576 18.0945 73.5052 17.6605C73.6528 17.2221 73.8655 16.8423 74.1432 16.5211C74.4211 16.1957 74.7574 15.9439 75.1525 15.7659C75.5474 15.5837 75.9901 15.4925 76.4806 15.4925C76.9753 15.4925 77.4202 15.5837 77.8151 15.7659C78.2145 15.9439 78.553 16.1957 78.8307 16.5211C79.1129 16.8423 79.3278 17.2221 79.4753 17.6605C79.6229 18.0945 79.6967 18.5654 79.6967 19.0733V19.223C79.6967 19.7309 79.6229 20.2017 79.4753 20.6358C79.3278 21.0698 79.1129 21.4495 78.8307 21.7751C78.553 22.0962 78.2166 22.3479 77.8217 22.5303C77.431 22.7082 76.9883 22.7973 76.4935 22.7973C75.9987 22.7973 75.5539 22.7082 75.1588 22.5303C74.7639 22.3479 74.4254 22.0962 74.1432 21.7751C73.8655 21.4495 73.6528 21.0698 73.5052 20.6358C73.3576 20.2017 73.2839 19.7309 73.2839 19.223ZM74.4883 19.0733V19.223C74.4883 19.5746 74.5295 19.9066 74.6121 20.2191C74.6945 20.5273 74.8182 20.8007 74.9831 21.0394C75.1525 21.2781 75.3629 21.4669 75.6146 21.6058C75.8663 21.7403 76.1594 21.8077 76.4935 21.8077C76.8234 21.8077 77.1121 21.7403 77.3594 21.6058C77.6111 21.4669 77.8195 21.2781 77.9845 21.0394C78.1494 20.8007 78.2731 20.5273 78.3555 20.2191C78.4423 19.9066 78.4858 19.5746 78.4858 19.223V19.0733C78.4858 18.7261 78.4423 18.3983 78.3555 18.0902C78.2731 17.7777 78.1472 17.5021 77.9779 17.2634C77.813 17.0203 77.6047 16.8293 77.3528 16.6905C77.1055 16.5515 76.8147 16.4821 76.4806 16.4821C76.1507 16.4821 75.8599 16.5515 75.6082 16.6905C75.3607 16.8293 75.1525 17.0203 74.9831 17.2634C74.8182 17.5021 74.6945 17.7777 74.6121 18.0902C74.5295 18.3983 74.4883 18.7261 74.4883 19.0733ZM82.405 17.0225V22.667H81.1941V15.6227H82.3399L82.405 17.0225ZM82.1576 18.8779L81.5977 18.8585C81.6021 18.3766 81.665 17.9318 81.7865 17.5238C81.9081 17.1114 82.0882 16.7534 82.3268 16.4495C82.5656 16.1457 82.8629 15.9114 83.2189 15.7465C83.5747 15.5771 83.987 15.4925 84.4558 15.4925C84.7857 15.4925 85.0895 15.5402 85.3672 15.6358C85.645 15.7269 85.8859 15.8723 86.0899 16.0719C86.2939 16.2717 86.4523 16.5277 86.5651 16.8402C86.678 17.1527 86.7344 17.5303 86.7344 17.973V22.667H85.5301V18.0315C85.5301 17.6626 85.4671 17.3675 85.3412 17.1462C85.2196 16.9249 85.0461 16.7642 84.8203 16.6643C84.5947 16.5602 84.3299 16.5082 84.0261 16.5082C83.6702 16.5082 83.3729 16.5711 83.1342 16.697C82.8954 16.8229 82.7044 16.9965 82.5612 17.2178C82.418 17.4391 82.3139 17.693 82.2487 17.9795C82.1881 18.2617 82.1576 18.5611 82.1576 18.8779ZM86.7214 18.2139L85.9141 18.4613C85.9185 18.075 85.9814 17.7039 86.1029 17.3479C86.2287 16.9921 86.4088 16.6753 86.6432 16.3975C86.882 16.1197 87.175 15.9005 87.5222 15.7399C87.8694 15.575 88.2666 15.4925 88.7137 15.4925C89.0913 15.4925 89.4254 15.5425 89.7162 15.6422C90.0114 15.7421 90.2587 15.8962 90.4585 16.1045C90.6623 16.3085 90.8165 16.5711 90.9206 16.8922C91.0249 17.2134 91.0769 17.5954 91.0769 18.0381V22.667H89.8659V18.0251C89.8659 17.6301 89.803 17.3241 89.6771 17.1071C89.5556 16.8858 89.3821 16.7317 89.1563 16.6449C88.935 16.5537 88.6702 16.5082 88.3621 16.5082C88.0973 16.5082 87.8629 16.5537 87.6589 16.6449C87.4549 16.7361 87.2835 16.8619 87.1446 17.0225C87.0056 17.1787 86.8994 17.3589 86.8255 17.5629C86.7562 17.7669 86.7214 17.9838 86.7214 18.2139ZM94.2083 15.6227V22.667H92.9974V15.6227H94.2083ZM92.9063 13.7542C92.9063 13.5589 92.9649 13.3939 93.0821 13.2594C93.2037 13.1249 93.3815 13.0576 93.6159 13.0576C93.8459 13.0576 94.0218 13.1249 94.1432 13.2594C94.2691 13.3939 94.3321 13.5589 94.3321 13.7542C94.3321 13.9409 94.2691 14.1014 94.1432 14.2361C94.0218 14.3662 93.8459 14.4313 93.6159 14.4313C93.3815 14.4313 93.2037 14.3662 93.0821 14.2361C92.9649 14.1014 92.9063 13.9409 92.9063 13.7542ZM97.3465 17.1266V22.667H96.1419V15.6227H97.2812L97.3465 17.1266ZM97.0599 18.8779L96.5586 18.8585C96.563 18.3766 96.6346 17.9318 96.7735 17.5238C96.9123 17.1114 97.1077 16.7534 97.3594 16.4495C97.6111 16.1457 97.9106 15.9114 98.2579 15.7465C98.6094 15.5771 98.9979 15.4925 99.4232 15.4925C99.7705 15.4925 100.083 15.5402 100.361 15.6358C100.638 15.7269 100.875 15.8745 101.07 16.0785C101.27 16.2825 101.422 16.5473 101.526 16.8727C101.63 17.1939 101.682 17.5867 101.682 18.0511V22.667H100.471V18.0381C100.471 17.6691 100.417 17.3741 100.309 17.1527C100.2 16.927 100.042 16.7642 99.8334 16.6643C99.6251 16.5602 99.369 16.5082 99.0651 16.5082C98.7656 16.5082 98.4922 16.5711 98.2449 16.697C98.0018 16.8229 97.7913 16.9965 97.6134 17.2178C97.4398 17.4391 97.303 17.693 97.2031 17.9795C97.1077 18.2617 97.0599 18.5611 97.0599 18.8779ZM108.076 15.6227H109.169V22.5173C109.169 23.1379 109.044 23.6674 108.792 24.1058C108.54 24.5442 108.188 24.8762 107.737 25.1019C107.29 25.3319 106.774 25.447 106.188 25.447C105.944 25.447 105.658 25.4079 105.328 25.3298C105.003 25.2559 104.682 25.1279 104.365 24.9457C104.052 24.7677 103.79 24.5269 103.577 24.223L104.208 23.5069C104.504 23.8627 104.812 24.1102 105.133 24.249C105.458 24.3879 105.78 24.4574 106.096 24.4574C106.478 24.4574 106.808 24.3858 107.086 24.2425C107.364 24.0993 107.579 23.8866 107.731 23.6045C107.887 23.3267 107.965 22.9838 107.965 22.5758V17.1722L108.076 15.6227ZM103.225 19.223V19.0863C103.225 18.5481 103.288 18.0598 103.414 17.6214C103.544 17.1787 103.729 16.799 103.968 16.4821C104.211 16.1653 104.504 15.9222 104.846 15.753C105.189 15.5793 105.576 15.4925 106.005 15.4925C106.448 15.4925 106.834 15.5706 107.164 15.7269C107.498 15.8789 107.78 16.1023 108.01 16.3975C108.245 16.6883 108.429 17.0398 108.564 17.4522C108.698 17.8645 108.792 18.331 108.844 18.8519V19.4509C108.796 19.9674 108.703 20.4318 108.564 20.8441C108.429 21.2565 108.245 21.6079 108.01 21.8987C107.78 22.1895 107.498 22.4131 107.164 22.5694C106.83 22.7213 106.439 22.7973 105.992 22.7973C105.571 22.7973 105.189 22.7082 104.846 22.5303C104.508 22.3523 104.217 22.1027 103.974 21.7815C103.731 21.4605 103.544 21.0827 103.414 20.6487C103.288 20.2105 103.225 19.7351 103.225 19.223ZM104.43 19.0863V19.223C104.43 19.5746 104.464 19.9045 104.534 20.2126C104.608 20.5207 104.718 20.7921 104.866 21.0263C105.018 21.2607 105.211 21.4453 105.445 21.5798C105.68 21.7099 105.96 21.7751 106.285 21.7751C106.684 21.7751 107.014 21.6905 107.275 21.5211C107.535 21.3519 107.741 21.1283 107.893 20.8506C108.05 20.5729 108.171 20.2711 108.258 19.9457V18.3766C108.21 18.1379 108.136 17.9079 108.036 17.6865C107.941 17.4609 107.815 17.2611 107.659 17.0875C107.507 16.9097 107.318 16.7686 107.092 16.6643C106.867 16.5602 106.602 16.5082 106.298 16.5082C105.968 16.5082 105.684 16.5775 105.445 16.7165C105.211 16.851 105.018 17.0377 104.866 17.2763C104.718 17.5107 104.608 17.7842 104.534 18.0967C104.464 18.4049 104.43 18.7347 104.43 19.0863ZM118.408 20.7985C118.408 20.6249 118.369 20.4643 118.29 20.3167C118.217 20.1649 118.063 20.0281 117.828 19.9066C117.598 19.7807 117.251 19.6722 116.786 19.581C116.396 19.4986 116.042 19.401 115.725 19.2881C115.413 19.1753 115.146 19.0385 114.925 18.8779C114.708 18.7174 114.54 18.5286 114.423 18.3115C114.306 18.0945 114.247 17.8406 114.247 17.5498C114.247 17.2721 114.308 17.0094 114.43 16.7621C114.556 16.5146 114.731 16.2955 114.957 16.1045C115.187 15.9135 115.463 15.7638 115.784 15.6553C116.105 15.5467 116.463 15.4925 116.858 15.4925C117.422 15.4925 117.904 15.5923 118.303 15.7921C118.703 15.9917 119.009 16.2586 119.221 16.5927C119.434 16.9226 119.54 17.2894 119.54 17.693H118.336C118.336 17.4977 118.277 17.3089 118.16 17.1266C118.047 16.9401 117.88 16.7859 117.659 16.6643C117.442 16.5429 117.175 16.4821 116.858 16.4821C116.524 16.4821 116.253 16.5342 116.044 16.6383C115.84 16.7382 115.691 16.8662 115.595 17.0225C115.504 17.1787 115.458 17.3437 115.458 17.5173C115.458 17.6475 115.48 17.7646 115.524 17.8689C115.571 17.9686 115.654 18.0619 115.771 18.1487C115.888 18.2313 116.053 18.3094 116.266 18.3831C116.478 18.4569 116.75 18.5307 117.08 18.6045C117.657 18.7347 118.132 18.891 118.505 19.0733C118.879 19.2555 119.156 19.479 119.339 19.7438C119.521 20.0086 119.612 20.3298 119.612 20.7074C119.612 21.0155 119.547 21.2977 119.417 21.5537C119.291 21.8098 119.106 22.0311 118.863 22.2178C118.625 22.4001 118.338 22.5433 118.004 22.6475C117.674 22.7473 117.303 22.7973 116.891 22.7973C116.27 22.7973 115.745 22.6865 115.315 22.4651C114.886 22.2438 114.56 21.9574 114.339 21.6058C114.117 21.2542 114.007 20.8831 114.007 20.4925H115.218C115.235 20.8223 115.33 21.085 115.504 21.2803C115.678 21.4713 115.89 21.6079 116.142 21.6905C116.394 21.7686 116.643 21.8077 116.891 21.8077C117.221 21.8077 117.496 21.7642 117.718 21.6774C117.943 21.5906 118.115 21.4713 118.232 21.3194C118.349 21.1674 118.408 20.9938 118.408 20.7985ZM120.875 19.223V19.0733C120.875 18.5654 120.949 18.0945 121.096 17.6605C121.244 17.2221 121.457 16.8423 121.734 16.5211C122.012 16.1957 122.349 15.9439 122.744 15.7659C123.138 15.5837 123.581 15.4925 124.072 15.4925C124.566 15.4925 125.011 15.5837 125.406 15.7659C125.806 15.9439 126.144 16.1957 126.422 16.5211C126.704 16.8423 126.919 17.2221 127.066 17.6605C127.214 18.0945 127.288 18.5654 127.288 19.0733V19.223C127.288 19.7309 127.214 20.2017 127.066 20.6358C126.919 21.0698 126.704 21.4495 126.422 21.7751C126.144 22.0962 125.808 22.3479 125.413 22.5303C125.022 22.7082 124.58 22.7973 124.085 22.7973C123.59 22.7973 123.145 22.7082 122.75 22.5303C122.355 22.3479 122.017 22.0962 121.734 21.7751C121.457 21.4495 121.244 21.0698 121.096 20.6358C120.949 20.2017 120.875 19.7309 120.875 19.223ZM122.08 19.0733V19.223C122.08 19.5746 122.121 19.9066 122.203 20.2191C122.286 20.5273 122.409 20.8007 122.574 21.0394C122.744 21.2781 122.954 21.4669 123.206 21.6058C123.458 21.7403 123.75 21.8077 124.085 21.8077C124.415 21.8077 124.703 21.7403 124.951 21.6058C125.202 21.4669 125.411 21.2781 125.576 21.0394C125.74 20.8007 125.864 20.5273 125.947 20.2191C126.034 19.9066 126.077 19.5746 126.077 19.223V19.0733C126.077 18.7261 126.034 18.3983 125.947 18.0902C125.864 17.7777 125.738 17.5021 125.569 17.2634C125.404 17.0203 125.196 16.8293 124.944 16.6905C124.697 16.5515 124.406 16.4821 124.072 16.4821C123.742 16.4821 123.451 16.5515 123.199 16.6905C122.952 16.8293 122.744 17.0203 122.574 17.2634C122.409 17.5021 122.286 17.7777 122.203 18.0902C122.121 18.3983 122.08 18.7261 122.08 19.0733ZM128.479 19.223V19.0733C128.479 18.5654 128.553 18.0945 128.701 17.6605C128.848 17.2221 129.061 16.8423 129.339 16.5211C129.616 16.1957 129.953 15.9439 130.348 15.7659C130.743 15.5837 131.185 15.4925 131.676 15.4925C132.171 15.4925 132.616 15.5837 133.01 15.7659C133.409 15.9439 133.748 16.1957 134.027 16.5211C134.308 16.8423 134.523 17.2221 134.671 17.6605C134.819 18.0945 134.892 18.5654 134.892 19.0733V19.223C134.892 19.7309 134.819 20.2017 134.671 20.6358C134.523 21.0698 134.308 21.4495 134.027 21.7751C133.748 22.0962 133.412 22.3479 133.017 22.5303C132.626 22.7082 132.184 22.7973 131.689 22.7973C131.194 22.7973 130.749 22.7082 130.354 22.5303C129.959 22.3479 129.621 22.0962 129.339 21.7751C129.061 21.4495 128.848 21.0698 128.701 20.6358C128.553 20.2017 128.479 19.7309 128.479 19.223ZM129.684 19.0733V19.223C129.684 19.5746 129.725 19.9066 129.807 20.2191C129.89 20.5273 130.014 20.8007 130.178 21.0394C130.348 21.2781 130.558 21.4669 130.81 21.6058C131.062 21.7403 131.355 21.8077 131.689 21.8077C132.019 21.8077 132.307 21.7403 132.555 21.6058C132.806 21.4669 133.015 21.2781 133.18 21.0394C133.344 20.8007 133.468 20.5273 133.551 20.2191C133.637 19.9066 133.681 19.5746 133.681 19.223V19.0733C133.681 18.7261 133.637 18.3983 133.551 18.0902C133.468 17.7777 133.343 17.5021 133.173 17.2634C133.008 17.0203 132.8 16.8293 132.548 16.6905C132.301 16.5515 132.01 16.4821 131.676 16.4821C131.346 16.4821 131.055 16.5515 130.803 16.6905C130.556 16.8293 130.348 17.0203 130.178 17.2634C130.014 17.5021 129.89 17.7777 129.807 18.0902C129.725 18.3983 129.684 18.7261 129.684 19.0733ZM137.607 17.1266V22.667H136.403V15.6227H137.541L137.607 17.1266ZM137.32 18.8779L136.819 18.8585C136.824 18.3766 136.895 17.9318 137.033 17.5238C137.173 17.1114 137.368 16.7534 137.62 16.4495C137.872 16.1457 138.171 15.9114 138.519 15.7465C138.869 15.5771 139.259 15.4925 139.684 15.4925C140.031 15.4925 140.343 15.5402 140.621 15.6358C140.899 15.7269 141.136 15.8745 141.331 16.0785C141.531 16.2825 141.683 16.5473 141.787 16.8727C141.891 17.1939 141.943 17.5867 141.943 18.0511V22.667H140.732V18.0381C140.732 17.6691 140.677 17.3741 140.569 17.1527C140.46 16.927 140.303 16.7642 140.093 16.6643C139.885 16.5602 139.629 16.5082 139.325 16.5082C139.027 16.5082 138.752 16.5711 138.505 16.697C138.263 16.8229 138.052 16.9965 137.873 17.2178C137.7 17.4391 137.564 17.693 137.464 17.9795C137.368 18.2617 137.32 18.5611 137.32 18.8779ZM146.76 19.223V19.0733C146.76 18.5654 146.835 18.0945 146.981 17.6605C147.129 17.2221 147.343 16.8423 147.62 16.5211C147.897 16.1957 148.233 15.9439 148.629 15.7659C149.024 15.5837 149.467 15.4925 149.957 15.4925C150.452 15.4925 150.897 15.5837 151.292 15.7659C151.691 15.9439 152.029 16.1957 152.307 16.5211C152.589 16.8423 152.804 17.2221 152.952 17.6605C153.1 18.0945 153.173 18.5654 153.173 19.0733V19.223C153.173 19.7309 153.1 20.2017 152.952 20.6358C152.804 21.0698 152.589 21.4495 152.307 21.7751C152.029 22.0962 151.693 22.3479 151.299 22.5303C150.908 22.7082 150.465 22.7973 149.971 22.7973C149.475 22.7973 149.031 22.7082 148.636 22.5303C148.24 22.3479 147.901 22.0962 147.62 21.7751C147.343 21.4495 147.129 21.0698 146.981 20.6358C146.835 20.2017 146.76 19.7309 146.76 19.223ZM147.965 19.0733V19.223C147.965 19.5746 148.007 19.9066 148.088 20.2191C148.171 20.5273 148.295 20.8007 148.46 21.0394C148.629 21.2781 148.84 21.4669 149.091 21.6058C149.343 21.7403 149.636 21.8077 149.971 21.8077C150.3 21.8077 150.588 21.7403 150.836 21.6058C151.088 21.4669 151.296 21.2781 151.461 21.0394C151.625 20.8007 151.749 20.5273 151.832 20.2191C151.919 19.9066 151.963 19.5746 151.963 19.223V19.0733C151.963 18.7261 151.919 18.3983 151.832 18.0902C151.749 17.7777 151.624 17.5021 151.455 17.2634C151.289 17.0203 151.081 16.8293 150.829 16.6905C150.583 16.5515 150.291 16.4821 149.957 16.4821C149.627 16.4821 149.336 16.5515 149.084 16.6905C148.837 16.8293 148.629 17.0203 148.46 17.2634C148.295 17.5021 148.171 17.7777 148.088 18.0902C148.007 18.3983 147.965 18.7261 147.965 19.0733ZM155.888 17.1266V22.667H154.684V15.6227H155.823L155.888 17.1266ZM155.601 18.8779L155.1 18.8585C155.104 18.3766 155.176 17.9318 155.315 17.5238C155.453 17.1114 155.649 16.7534 155.901 16.4495C156.153 16.1457 156.452 15.9114 156.8 15.7465C157.151 15.5771 157.54 15.4925 157.965 15.4925C158.312 15.4925 158.624 15.5402 158.903 15.6358C159.18 15.7269 159.416 15.8745 159.612 16.0785C159.812 16.2825 159.964 16.5473 160.068 16.8727C160.172 17.1939 160.224 17.5867 160.224 18.0511V22.667H159.013V18.0381C159.013 17.6691 158.959 17.3741 158.851 17.1527C158.741 16.927 158.584 16.7642 158.375 16.6643C158.167 16.5602 157.911 16.5082 157.607 16.5082C157.307 16.5082 157.033 16.5711 156.787 16.697C156.544 16.8229 156.333 16.9965 156.155 17.2178C155.981 17.4391 155.844 17.693 155.745 17.9795C155.649 18.2617 155.601 18.5611 155.601 18.8779Z" fill="white"/>
<path d="M77.5627 41.2289V47.4581C77.3057 47.7427 76.9099 48.0483 76.3751 48.3746C75.8473 48.6941 75.1807 48.9685 74.3751 49.1975C73.5696 49.4267 72.6216 49.5413 71.5313 49.5413C70.5244 49.5413 69.6112 49.3817 68.7918 49.0622C67.9724 48.7358 67.2675 48.2601 66.6772 47.6351C66.0939 47.0031 65.6425 46.2323 65.323 45.3226C65.0105 44.4059 64.8542 43.3573 64.8542 42.1767V41.333C64.8542 40.1525 65.014 39.1038 65.3335 38.1871C65.6529 37.2705 66.1008 36.4997 66.6772 35.8746C67.2605 35.2427 67.9445 34.7635 68.7293 34.4371C69.5209 34.1107 70.3891 33.9475 71.3334 33.9475C72.7293 33.9475 73.8646 34.1698 74.7397 34.6142C75.6146 35.0518 76.2779 35.6594 76.7293 36.4371C77.1807 37.2079 77.4549 38.1003 77.5523 39.1142H74.0417C73.9724 38.6142 73.8404 38.1906 73.646 37.8434C73.4585 37.4893 73.1876 37.2219 72.8334 37.0413C72.4793 36.8538 72.0209 36.7601 71.4585 36.7601C71.0209 36.7601 70.6216 36.8538 70.2605 37.0413C69.9064 37.2289 69.6042 37.5135 69.3542 37.8955C69.1042 38.2705 68.9098 38.7427 68.7709 39.3122C68.639 39.8817 68.573 40.5483 68.573 41.3122V42.1767C68.573 42.9337 68.6356 43.5969 68.7605 44.1663C68.8925 44.7358 69.0869 45.2115 69.3439 45.5934C69.6077 45.9685 69.9411 46.2531 70.3439 46.4475C70.7536 46.6351 71.2362 46.7289 71.7918 46.7289C72.1806 46.7289 72.514 46.6975 72.7918 46.6351C73.0696 46.5657 73.2988 46.4823 73.4793 46.3851C73.6668 46.2809 73.8092 46.1837 73.9064 46.0934V43.7393H71.3646V41.2289H77.5627ZM79.0939 43.8122V43.5934C79.0939 42.767 79.212 42.0066 79.448 41.3122C79.6841 40.6107 80.0313 40.0031 80.4897 39.4893C80.948 38.9754 81.514 38.5761 82.1876 38.2914C82.8612 37.9997 83.639 37.8538 84.5209 37.8538C85.4098 37.8538 86.191 37.9997 86.8646 38.2914C87.5453 38.5761 88.1147 38.9754 88.5731 39.4893C89.0313 40.0031 89.3786 40.6107 89.6146 41.3122C89.8508 42.0066 89.9689 42.767 89.9689 43.5934V43.8122C89.9689 44.6317 89.8508 45.3921 89.6146 46.0934C89.3786 46.7878 89.0313 47.3955 88.5731 47.9163C88.1147 48.4302 87.5488 48.8295 86.875 49.1142C86.2014 49.399 85.4237 49.5413 84.5417 49.5413C83.6598 49.5413 82.8786 49.399 82.198 49.1142C81.5174 48.8295 80.948 48.4302 80.4897 47.9163C80.0313 47.3955 79.6841 46.7878 79.448 46.0934C79.212 45.3921 79.0939 44.6317 79.0939 43.8122ZM82.6042 43.5934V43.8122C82.6042 44.2358 82.6356 44.6317 82.698 44.9997C82.7605 45.3677 82.8647 45.6906 83.0105 45.9685C83.1564 46.2393 83.3542 46.451 83.6042 46.6038C83.8542 46.7566 84.1668 46.833 84.5417 46.833C84.9098 46.833 85.2155 46.7566 85.4585 46.6038C85.7084 46.451 85.9064 46.2393 86.0522 45.9685C86.198 45.6906 86.3022 45.3677 86.3646 44.9997C86.4272 44.6317 86.4585 44.2358 86.4585 43.8122V43.5934C86.4585 43.1837 86.4272 42.7983 86.3646 42.4371C86.3022 42.0691 86.198 41.7462 86.0522 41.4685C85.9064 41.1837 85.7084 40.9615 85.4585 40.8018C85.2084 40.6421 84.896 40.5622 84.5209 40.5622C84.1529 40.5622 83.8439 40.6421 83.5939 40.8018C83.3508 40.9615 83.1564 41.1837 83.0105 41.4685C82.8647 41.7462 82.7605 42.0691 82.698 42.4371C82.6356 42.7983 82.6042 43.1837 82.6042 43.5934ZM91.0938 43.8122V43.5934C91.0938 42.767 91.212 42.0066 91.448 41.3122C91.6841 40.6107 92.0313 40.0031 92.4897 39.4893C92.948 38.9754 93.514 38.5761 94.1876 38.2914C94.8612 37.9997 95.6391 37.8538 96.5209 37.8538C97.4099 37.8538 98.191 37.9997 98.8646 38.2914C99.5453 38.5761 100.115 38.9754 100.573 39.4893C101.031 40.0031 101.379 40.6107 101.615 41.3122C101.851 42.0066 101.969 42.767 101.969 43.5934V43.8122C101.969 44.6317 101.851 45.3921 101.615 46.0934C101.379 46.7878 101.031 47.3955 100.573 47.9163C100.115 48.4302 99.5488 48.8295 98.875 49.1142C98.2014 49.399 97.4237 49.5413 96.5417 49.5413C95.6598 49.5413 94.8786 49.399 94.198 49.1142C93.5174 48.8295 92.948 48.4302 92.4897 47.9163C92.0313 47.3955 91.6841 46.7878 91.448 46.0934C91.212 45.3921 91.0938 44.6317 91.0938 43.8122ZM94.6043 43.5934V43.8122C94.6043 44.2358 94.6356 44.6317 94.698 44.9997C94.7605 45.3677 94.8646 45.6906 95.0105 45.9685C95.1564 46.2393 95.3543 46.451 95.6043 46.6038C95.8543 46.7566 96.1668 46.833 96.5417 46.833C96.9098 46.833 97.2155 46.7566 97.4585 46.6038C97.7084 46.451 97.9064 46.2393 98.0522 45.9685C98.198 45.6906 98.3022 45.3677 98.3646 44.9997C98.4272 44.6317 98.4585 44.2358 98.4585 43.8122V43.5934C98.4585 43.1837 98.4272 42.7983 98.3646 42.4371C98.3022 42.0691 98.198 41.7462 98.0522 41.4685C97.9064 41.1837 97.7084 40.9615 97.4585 40.8018C97.2084 40.6421 96.896 40.5622 96.5209 40.5622C96.1529 40.5622 95.8438 40.6421 95.5938 40.8018C95.3508 40.9615 95.1564 41.1837 95.0105 41.4685C94.8646 41.7462 94.7605 42.0691 94.698 42.4371C94.6356 42.7983 94.6043 43.1837 94.6043 43.5934ZM110.615 38.0622H113.802V48.8955C113.802 49.9371 113.563 50.8191 113.083 51.5413C112.604 52.2705 111.934 52.8226 111.073 53.1975C110.219 53.5795 109.219 53.7705 108.073 53.7705C107.566 53.7705 107.049 53.7045 106.521 53.5726C105.993 53.4475 105.5 53.2601 105.042 53.0101C104.583 52.7601 104.198 52.451 103.886 52.083L105.354 50.0205C105.639 50.3399 105.997 50.6107 106.427 50.833C106.858 51.0622 107.365 51.1767 107.948 51.1767C108.455 51.1767 108.879 51.0865 109.219 50.9059C109.566 50.7254 109.83 50.4615 110.011 50.1142C110.191 49.7739 110.281 49.3607 110.281 48.8746V40.7289L110.615 38.0622ZM103.125 43.833V43.6142C103.125 42.7601 103.229 41.9823 103.438 41.2809C103.653 40.5726 103.959 39.965 104.354 39.4581C104.757 38.9441 105.243 38.5483 105.813 38.2705C106.382 37.9927 107.024 37.8538 107.74 37.8538C108.511 37.8538 109.143 38.0031 109.636 38.3018C110.136 38.5934 110.535 39.0031 110.833 39.5309C111.139 40.0587 111.375 40.6767 111.542 41.3851C111.715 42.0865 111.861 42.8434 111.979 43.6559V43.9163C111.861 44.6802 111.698 45.4025 111.49 46.083C111.288 46.7566 111.024 47.3538 110.698 47.8746C110.372 48.3955 109.962 48.8053 109.469 49.1038C108.983 49.3955 108.399 49.5413 107.719 49.5413C107.011 49.5413 106.372 49.399 105.802 49.1142C105.24 48.8295 104.757 48.4302 104.354 47.9163C103.959 47.4025 103.653 46.7983 103.438 46.1038C103.229 45.4094 103.125 44.6525 103.125 43.833ZM106.636 43.6142V43.833C106.636 44.2566 106.674 44.649 106.75 45.0101C106.833 45.3711 106.959 45.6906 107.125 45.9685C107.292 46.2393 107.497 46.451 107.74 46.6038C107.99 46.7566 108.281 46.833 108.615 46.833C109.122 46.833 109.531 46.7254 109.844 46.5101C110.156 46.2949 110.382 45.9893 110.521 45.5934C110.66 45.1975 110.719 44.7323 110.698 44.1975V43.3746C110.712 42.9163 110.681 42.5135 110.604 42.1663C110.528 41.8122 110.406 41.517 110.24 41.2809C110.08 41.0449 109.865 40.8677 109.594 40.7497C109.33 40.6247 109.011 40.5622 108.636 40.5622C108.309 40.5622 108.021 40.6386 107.771 40.7914C107.521 40.9441 107.313 41.1594 107.146 41.4371C106.979 41.7079 106.851 42.0309 106.761 42.4059C106.677 42.7739 106.636 43.1767 106.636 43.6142ZM119.531 33.333V49.333H116.011V33.333H119.531ZM127.156 49.5413C126.24 49.5413 125.42 49.399 124.698 49.1142C123.976 48.8226 123.365 48.4233 122.865 47.9163C122.372 47.4094 121.993 46.8261 121.729 46.1663C121.472 45.5066 121.344 44.8087 121.344 44.0726V43.6767C121.344 42.8503 121.459 42.0865 121.688 41.3851C121.917 40.6767 122.257 40.0587 122.708 39.5309C123.16 39.0031 123.726 38.5934 124.406 38.3018C125.087 38.0031 125.879 37.8538 126.781 37.8538C127.58 37.8538 128.295 37.9823 128.927 38.2393C129.559 38.4962 130.094 38.8642 130.531 39.3434C130.976 39.8226 131.313 40.4025 131.542 41.083C131.778 41.7635 131.896 42.5274 131.896 43.3746V44.8018H122.688V42.6038H128.469V42.333C128.476 41.9581 128.41 41.6386 128.271 41.3746C128.139 41.1107 127.945 40.9094 127.688 40.7705C127.431 40.6317 127.118 40.5622 126.75 40.5622C126.368 40.5622 126.052 40.6455 125.802 40.8122C125.559 40.9789 125.368 41.2079 125.229 41.4997C125.097 41.7843 125.004 42.1142 124.948 42.4893C124.893 42.8642 124.865 43.2601 124.865 43.6767V44.0726C124.865 44.4893 124.92 44.8677 125.031 45.2079C125.149 45.5483 125.316 45.8399 125.531 46.083C125.754 46.3191 126.017 46.5031 126.323 46.6351C126.636 46.767 126.99 46.833 127.386 46.833C127.865 46.833 128.337 46.7427 128.802 46.5622C129.267 46.3817 129.667 46.083 130 45.6663L131.594 47.5622C131.365 47.8886 131.038 48.2045 130.615 48.5101C130.198 48.8157 129.698 49.0657 129.115 49.2601C128.531 49.4475 127.879 49.5413 127.156 49.5413ZM144.855 44.1871H141.083V41.3642H144.855C145.368 41.3642 145.785 41.2774 146.104 41.1038C146.424 40.9302 146.656 40.6906 146.803 40.3851C146.955 40.0726 147.031 39.7219 147.031 39.333C147.031 38.9163 146.955 38.5309 146.803 38.1767C146.656 37.8226 146.424 37.5378 146.104 37.3226C145.785 37.1003 145.368 36.9893 144.855 36.9893H142.459V49.333H138.803V34.1663H144.855C146.069 34.1663 147.115 34.3886 147.989 34.833C148.872 35.2774 149.548 35.8886 150.021 36.6663C150.493 37.4371 150.729 38.3191 150.729 39.3122C150.729 40.2914 150.493 41.1455 150.021 41.8746C149.548 42.6038 148.872 43.1733 147.989 43.583C147.115 43.9858 146.069 44.1871 144.855 44.1871ZM156.24 33.333V49.333H152.719V33.333H156.24ZM164.26 46.4997V41.8538C164.26 41.5343 164.215 41.2601 164.125 41.0309C164.035 40.8018 163.892 40.6247 163.697 40.4997C163.504 40.3677 163.243 40.3018 162.917 40.3018C162.653 40.3018 162.427 40.3469 162.24 40.4371C162.052 40.5274 161.909 40.6629 161.812 40.8434C161.715 41.0239 161.667 41.2531 161.667 41.5309H158.156C158.156 41.0101 158.271 40.5274 158.5 40.083C158.736 39.6317 159.069 39.2393 159.5 38.9059C159.937 38.5726 160.459 38.3157 161.063 38.1351C161.673 37.9475 162.355 37.8538 163.104 37.8538C164 37.8538 164.799 38.0031 165.5 38.3018C166.208 38.6003 166.768 39.0483 167.177 39.6455C167.587 40.2358 167.792 40.9789 167.792 41.8746V46.4893C167.792 47.2254 167.833 47.7843 167.917 48.1663C168 48.5413 168.119 48.8711 168.271 49.1559V49.333H164.749C164.584 48.9858 164.459 48.5622 164.375 48.0622C164.299 47.5553 164.26 47.0343 164.26 46.4997ZM164.688 42.4475L164.708 44.3226H163.156C162.829 44.3226 162.552 44.3677 162.323 44.4581C162.101 44.5483 161.92 44.6733 161.781 44.833C161.649 44.9858 161.552 45.1594 161.489 45.3538C161.435 45.5483 161.407 45.7531 161.407 45.9685C161.407 46.1767 161.455 46.3642 161.552 46.5309C161.656 46.6906 161.795 46.8157 161.969 46.9059C162.143 46.9962 162.337 47.0413 162.552 47.0413C162.941 47.0413 163.271 46.9685 163.541 46.8226C163.82 46.6698 164.031 46.4858 164.177 46.2705C164.323 46.0553 164.396 45.8538 164.396 45.6663L165.167 47.1038C165.028 47.3817 164.868 47.6629 164.688 47.9475C164.513 48.2323 164.295 48.4962 164.031 48.7393C163.775 48.9754 163.459 49.1698 163.083 49.3226C162.708 49.4685 162.253 49.5413 161.719 49.5413C161.024 49.5413 160.385 49.399 159.803 49.1142C159.225 48.8295 158.764 48.4337 158.416 47.9267C158.069 47.4129 157.896 46.8226 157.896 46.1559C157.896 45.5726 158 45.0518 158.208 44.5934C158.424 44.1351 158.747 43.7462 159.177 43.4267C159.608 43.1073 160.156 42.8642 160.823 42.6975C161.489 42.5309 162.275 42.4475 163.177 42.4475H164.688ZM173.031 48.0101L175.948 38.0622H179.719L175.188 51.0101C175.091 51.2949 174.961 51.6003 174.803 51.9267C174.643 52.2601 174.424 52.5761 174.145 52.8746C173.868 53.1733 173.511 53.4163 173.073 53.6038C172.643 53.7914 172.108 53.8851 171.469 53.8851C171.128 53.8851 170.879 53.8677 170.719 53.833C170.565 53.8053 170.329 53.7531 170.011 53.6767V51.1663C170.101 51.1663 170.177 51.1663 170.24 51.1663C170.309 51.1663 170.385 51.1663 170.469 51.1663C170.844 51.1663 171.143 51.1282 171.364 51.0518C171.593 50.9754 171.768 50.8642 171.885 50.7185C172.011 50.5726 172.108 50.3955 172.177 50.1871L173.031 48.0101ZM172.292 38.0622L174.511 45.9475L174.896 49.6663H172.541L168.531 38.0622H172.292Z" fill="white"/>
</svg>
