<svg width="20" height="20" viewBox="0 0 20 20" fill="none" xmlns="http://www.w3.org/2000/svg">
<mask id="mask0_303_1874" style="mask-type:alpha" maskUnits="userSpaceOnUse" x="0" y="0" width="20" height="20">
<rect x="0.518555" y="0.518555" width="18.963" height="18.963" fill="#D9D9D9"/>
</mask>
<g mask="url(#mask0_303_1874)">
<path d="M10.0001 17.9011C9.56558 17.9011 9.19356 17.7464 8.8841 17.4369C8.57463 17.1274 8.4199 16.7554 8.4199 16.3209H11.5804C11.5804 16.7554 11.4257 17.1274 11.1162 17.4369C10.8067 17.7464 10.4347 17.9011 10.0001 17.9011ZM6.83965 15.5307V13.9505H13.1606V15.5307H6.83965ZM7.03718 13.1604C6.12854 12.6204 5.40755 11.8962 4.87422 10.9875C4.34089 10.0789 4.07422 9.09123 4.07422 8.02456C4.07422 6.37847 4.65035 4.97929 5.80261 3.82703C6.95488 2.67476 8.35405 2.09863 10.0001 2.09863C11.6462 2.09863 13.0454 2.67476 14.1977 3.82703C15.3499 4.97929 15.9261 6.37847 15.9261 8.02456C15.9261 9.09123 15.6594 10.0789 15.1261 10.9875C14.5927 11.8962 13.8718 12.6204 12.9631 13.1604H7.03718Z" fill="white"/>
</g>
</svg>
