<svg width="19" height="20" viewBox="0 0 19 20" fill="none" xmlns="http://www.w3.org/2000/svg">
<mask id="mask0_303_1841" style="mask-type:alpha" maskUnits="userSpaceOnUse" x="0" y="0" width="19" height="20">
<rect x="0.0185547" y="0.518555" width="18.963" height="18.963" fill="#D9D9D9"/>
</mask>
<g mask="url(#mask0_303_1841)">
<path d="M6.33953 13.9509C6.5634 13.9509 6.75106 13.8752 6.9025 13.7237C7.05394 13.5723 7.12966 13.3846 7.12966 13.1608C7.12966 12.9369 7.05394 12.7492 6.9025 12.5978C6.75106 12.4464 6.5634 12.3706 6.33953 12.3706C6.11567 12.3706 5.92801 12.4464 5.77657 12.5978C5.62513 12.7492 5.54941 12.9369 5.54941 13.1608C5.54941 13.3846 5.62513 13.5723 5.77657 13.7237C5.92801 13.8752 6.11567 13.9509 6.33953 13.9509ZM6.33953 10.7904C6.5634 10.7904 6.75106 10.7147 6.9025 10.5632C7.05394 10.4118 7.12966 10.2241 7.12966 10.0003C7.12966 9.7764 7.05394 9.58875 6.9025 9.43731C6.75106 9.28587 6.5634 9.21015 6.33953 9.21015C6.11567 9.21015 5.92801 9.28587 5.77657 9.43731C5.62513 9.58875 5.54941 9.7764 5.54941 10.0003C5.54941 10.2241 5.62513 10.4118 5.77657 10.5632C5.92801 10.7147 6.11567 10.7904 6.33953 10.7904ZM6.33953 7.6299C6.5634 7.6299 6.75106 7.55418 6.9025 7.40274C7.05394 7.2513 7.12966 7.06365 7.12966 6.83978C7.12966 6.61591 7.05394 6.42825 6.9025 6.27681C6.75106 6.12537 6.5634 6.04965 6.33953 6.04965C6.11567 6.04965 5.92801 6.12537 5.77657 6.27681C5.62513 6.42825 5.54941 6.61591 5.54941 6.83978C5.54941 7.06365 5.62513 7.2513 5.77657 7.40274C5.92801 7.55418 6.11567 7.6299 6.33953 7.6299ZM8.7099 13.9509H13.4506V12.3706H8.7099V13.9509ZM8.7099 10.7904H13.4506V9.21015H8.7099V10.7904ZM8.7099 7.6299H13.4506V6.04965H8.7099V7.6299ZM3.96916 17.1114C3.5346 17.1114 3.16258 16.9567 2.85311 16.6472C2.54365 16.3377 2.38892 15.9657 2.38892 15.5311V4.46941C2.38892 4.03484 2.54365 3.66282 2.85311 3.35336C3.16258 3.04389 3.5346 2.88916 3.96916 2.88916H15.0309C15.4655 2.88916 15.8375 3.04389 16.1469 3.35336C16.4564 3.66282 16.6111 4.03484 16.6111 4.46941V15.5311C16.6111 15.9657 16.4564 16.3377 16.1469 16.6472C15.8375 16.9567 15.4655 17.1114 15.0309 17.1114H3.96916Z" fill="white"/>
</g>
</svg>
