<svg width="20" height="20" viewBox="0 0 20 20" fill="none" xmlns="http://www.w3.org/2000/svg">
<mask id="mask0_129_3345" style="mask-type:alpha" maskUnits="userSpaceOnUse" x="0" y="0" width="20" height="20">
<rect x="0.518555" y="0.518555" width="18.963" height="18.963" fill="#D9D9D9"/>
</mask>
<g mask="url(#mask0_129_3345)">
<path d="M7.59024 11.2248L12.0544 6.74085L10.9285 5.61493L7.59024 8.97295L5.91122 7.31369L4.7853 8.41986L7.59024 11.2248ZM8.41986 14.7409C6.65526 14.7409 5.16061 14.1285 3.93591 12.9038C2.71122 11.6791 2.09888 10.1845 2.09888 8.41986C2.09888 6.65526 2.71122 5.16061 3.93591 3.93591C5.16061 2.71122 6.65526 2.09888 8.41986 2.09888C10.1845 2.09888 11.6791 2.71122 12.9038 3.93591C14.1285 5.16061 14.7409 6.65526 14.7409 8.41986C14.7409 9.15731 14.6256 9.85196 14.3952 10.5038C14.1647 11.1557 13.8388 11.7516 13.4174 12.2915L17.9013 16.7952L16.7952 17.9013L12.2915 13.4174C11.7516 13.8388 11.1557 14.1647 10.5038 14.3952C9.85196 14.6256 9.15731 14.7409 8.41986 14.7409Z" fill="white"/>
</g>
</svg>
